<?xml version="1.0" encoding="UTF-8"?>
<!DOCTYPE svg PUBLIC "-//W3C//DTD SVG 1.1//EN" "http://www.w3.org/Graphics/SVG/1.1/DTD/svg11.dtd">
<!-- Creator: CorelDRAW 2018 (64 Bit Versão de avaliação) -->
<svg xmlns="http://www.w3.org/2000/svg" xml:space="preserve" width="300px" height="298px" version="1.1" shape-rendering="geometricPrecision" text-rendering="geometricPrecision" image-rendering="optimizeQuality" fill-rule="evenodd" clip-rule="evenodd"
viewBox="0 0 44.91 44.58"
 xmlns:xlink="http://www.w3.org/1999/xlink">
 <g id="Camada_x0020_1">
  <metadata id="CorelCorpID_0Corel-Layer"/>
  <g id="_2958189970944">
   <g>
    <path fill="black" d="M0 21.49c0,2.77 0.06,4.05 0.83,6.72 0.67,2.33 0.94,2.49 1.78,4.36 0.16,0.36 0,0.68 -0.1,1.16 -0.36,1.6 -1.9,7.91 -1.9,9.16 0,0.64 0.68,1.49 1.85,1.49 0.41,0 0.85,-0.13 1.26,-0.23 0.43,-0.09 0.83,-0.19 1.21,-0.28l7.28 -1.66c0.28,-0.02 1.65,0.68 2.1,0.84 3.92,1.45 8.2,1.97 12.41,1.12 2.27,-0.46 5.42,-1.52 7.35,-2.82 1.71,-1.14 0.31,-4.38 -2.16,-2.86 -1.7,1.04 -3.97,1.8 -5.95,2.2 -1.23,0.25 -2.02,0.18 -2.93,0.32 -1.16,0.18 -4.54,-0.37 -5.71,-0.7 -0.85,-0.24 -1.64,-0.54 -2.4,-0.85 -2.55,-1.04 -1.21,-1.24 -4.25,-0.55 -0.69,0.16 -1.37,0.3 -2,0.45 -1.33,0.32 -2.62,0.59 -3.93,0.9l0.98 -4.63c0.16,-0.72 0.36,-1.52 0.52,-2.29 0.34,-1.71 -0.17,-1.5 -1.27,-4.02 -2.25,-5.18 -1.81,-11.37 1,-16.25 1.82,-3.16 4.6,-5.82 7.86,-7.49 0.31,-0.16 0.53,-0.22 0.85,-0.38 1.7,-0.81 3.59,-1.28 5.57,-1.53 0.37,-0.05 0.58,-0.07 1.07,-0.07 0.5,0 0.61,-0.1 1.13,-0.1 0.99,0 3.28,0.3 4.17,0.5 4.83,1.06 8.46,3.76 11.33,7.6l0.93 1.44c1.29,2.32 2.02,4.41 2.36,7.12 0.36,2.82 0.01,5.91 -1.01,8.5 -0.55,1.41 -1.03,2.45 -1.83,3.69 -0.23,0.36 -0.6,0.79 -0.6,1.33 0,1 0.76,1.84 1.85,1.84 1.2,0 1.77,-1.31 2.26,-2.12 1.66,-2.73 3,-6.85 3,-10.33 0,-4.06 -0.48,-6.94 -2.14,-10.23 -1.34,-2.69 -1.61,-2.91 -3.16,-4.91 -0.97,-1.24 -2.9,-2.91 -4.21,-3.86 -3.17,-2.29 -7.87,-4.07 -12.24,-4.07 -3.86,0 -7.11,0.52 -10.15,2.05 -0.8,0.39 -1.82,0.89 -2.55,1.39l-3.82 3.03c-3.73,3.74 -6.64,9.26 -6.64,15.02z"/>
    <path fill="black" d="M12.19 16.93c0,1.52 0.12,2.26 0.82,3.65 0.56,1.11 0.75,1.35 1.39,2.3 0.89,1.31 1.89,2.52 3.02,3.64 1.38,1.39 2.91,2.61 4.68,3.48 1.81,0.88 4.27,1.75 6.49,1.75 1.49,0 3.56,-1.2 4.08,-2.41 0.35,-0.82 0.4,-1.34 0.4,-2.24 0,-0.57 -0.58,-0.68 -1.03,-0.9 -0.71,-0.36 -3.33,-1.82 -4.06,-1.82 -0.61,0 -1.14,1.1 -1.82,1.87 -0.56,0.62 -0.7,1 -1.39,0.74 -2.96,-1.16 -4.98,-2.92 -6.7,-5.5 -0.14,-0.21 -0.48,-0.68 -0.56,-0.94 -0.2,-0.66 0.68,-0.96 1.21,-1.74 0.94,-1.39 0.37,-1.6 -0.6,-4.04 -0.2,-0.5 -0.36,-0.91 -0.58,-1.35 -0.57,-1.14 -0.66,-0.96 -2.28,-0.96 -1.5,0 -3.07,2.73 -3.07,4.47z"/>
   </g>
  </g>
 </g>
</svg>
